<?xml version="1.0" encoding="UTF-8"?>
<svg version="1.1" viewBox="0 0 1064 1208" width="266" height="302" xmlns="http://www.w3.org/2000/svg">
<path transform="translate(523,18)" d="m0 0h11l23 5 23 6 48 12 123 31 57 14 40 10 62 15 103 26 10 3 3 4 1 9v690l-2 12-7 8-42 28-11 8-11 7-13 9-11 8-10 7-39 26-20 14-15 10-53 36-16 11-22 15-28 19-68 46-10 7-13 9-22 15-12 8-25 17-14 10-13 9-14 8-8 2-10-4-11-7-11-8-24-16-32-22-17-12-12-8-25-17-16-11-23-16-23-15-28-19-20-14-27-18-17-12-16-11-25-17-12-8-16-11-21-14-19-13-30-21-16-10-18-13-17-12-9-8-1-2-1-9v-692l1-12 15-5 44-11 43-10 71-18 113-28 50-12 44-11 67-16zm-12 29-44 11-38 9-84 21 4 4 8 7 157 157h2l-1-209zm32 1v208l4-2 16-17 7-6 6-7 128-128 7-6v-2l-23-5-65-16-76-19zm-239 50-21 5-81 20-115 28-8 2 4 4 20 11 21 12 26 15 22 12 21 12 17 10 29 16 45 25h3l4-36 9-78 5-48v-10zm448 1 2 25 8 72 8 70 2 5 9-3 21-12 25-14 14-8 18-10 28-16 17-10 24-13 23-13 14-8 11-7 2-3-15-4-38-9-45-11-53-13-69-17zm-422 10-4 32-5 46-5 42-4 33v11h176l5-1-2-4-159-159zm395 1-16 17-28 28-2 1v2l-4 2-14 15-15 15-7 6-7 8-15 15-2 1v2l-4 2-8 8-7 8-10 10-8 7-12 12-1 3 4 2h176v-11l-11-99-6-53zm-644 76 7 12 10 17 12 20 13 21 16 27 10 16 13 22 24 40 10 16 16 26 11 18 10 17 10 16 11 20h2l3-27 5-58 4-41 2-28 2-18v-10l-5-3-23-12-17-10-21-12-27-15-21-12-24-14-28-15-23-13zm893 1-17 9-17 10-27 15-21 12-26 14-27 16-24 13-21 12-6 4-2 4v11l5 56 4 47 5 58 1 6 4-2 30-50 11-18 17-28 12-19 10-18 10-16 16-26 10-17 9-15 10-17 17-28 12-19 6-10v-4zm-918 9v365l6-1 36-12 41-13 34-10 26-8 25-8 19-6-4-7-14-23-9-15-13-21-11-19-10-16-24-40-15-24-16-27-10-17-13-21-10-17-10-16-14-24-12-19zm944 0-11 20-10 16-12 20-11 18-17 28-11 17-14 24-21 35-8 13-15 24-6 10-9 16-8 13-11 18-10 16-10 17 1 4 28 9 49 15 32 10 34 10 33 11 8 1 1-15v-343l-1-7zm-703 102-3 28-5 58-6 65-6 74-2 16v22l3 14 6 11 11 12 13 11 12 11 10 11 8 14 5 13 3 13 5 37 5 28 5 7 18 13 16 11 11 4h7l25-10 29-10 26-10 21-6 2-2 1-10v-50l-9-10-11-15-11-16-9-12-13-18-5-11-1-23-1-42-1-67-88-11-19-3-15-6-4-9 1-6 4-6 7-1 17 5 25 4 73 9 21 4 1 3 2 49 1 62 1 18 2 3 26 6 16 4 13-2 33-7 1-1 1-8 1-28 1-67 1-28 6-4 16-3 23-3 44-5 35-5 10-5 9 1 5 4 1 3v8l-5 6-9 4-16 4-31 4-64 8-3 124-1 11-9 14-11 15-9 13-9 12-10 14-7 8-1 57 1 7 9 3 47 17 21 7 21 8 12 3 16-9 22-16 8-7 4-7 4-29 6-38 6-20 6-11 8-10 6-7 2-1v-2l4-2 12-11 8-7 7-8 8-13 3-14-1-19-2-30-3-32-13-145-3-30-2-6-230-1zm-49 229-34 11-35 10-25 8-81 25-1 2 15 8 24 14 20 11 21 12 20 11 23 13 47 26 24 13 27 15 21 12 11 7 3 1-1-16-7-43-4-10-7-13-13-13-8-7-14-12-7-8-8-13-4-8-4-13v-40zm559 2v36l-2 13-9 19-9 12-13 13-11 9-12 11-8 12-7 19-7 48v5l5-1 18-10 39-22 27-15 39-22 19-11 20-11 18-10 24-13 24-14 22-12-2-3-40-13-48-15-27-8-36-11-19-6zm-311 73 2 5 10 13 11 16 8 11 3 2 13-19 12-15 6-9v-2h-9l-22 4-18-3-11-3zm-440 1v220l2 1 14-5 162-51 52-16 22-7v-2l-21-11-27-16-18-10-46-25-36-20-15-9-22-13-12-6-23-13-29-16zm943 3-8 3-21 12-23 12-19 11-43 24-19 11-27 15-22 12-50 28-17 10 3 3 63 20 55 17 31 10 33 10 29 9 25 8 10 4h2l1-6v-211l-1-2zm-473 149-28 10-20 7-40 15-14 5-3 4 1 34 2 13 10 6 18 8 31 12 28 12 17 7 7-1 36-15 32-13 19-8 8-4 3-4 2-11 1-20v-16l-5-3-37-14-35-13-20-7-10-4zm-178 12-18 54-13 40-22 66-13 40v3l9-1 17-5 28-10 38-13 105-36 12-5-1-2-21-8-27-11-25-11-9-8-8-16-2-10-1-36-3-3-10-5-15-11-11-7-7-5zm-31 1-58 18-97 30-44 14-49 15-5 1 5 5 15 10 20 14 17 12 20 13 30 21 13 8 17 12 12 8 15 11 12 8 12 7 3-3 5-16 12-37 14-43 12-36 19-58 3-9v-5zm390 0-11 7-16 11-14 9-6 3-1 40-4 13-7 13-14 8-16 7-27 11-21 9-5 2 2 2 40 13 28 10 72 24 52 18 12 4h3v-9l-13-38-15-47-21-63-11-34-3-13zm29 1 3 9 14 43 18 55 14 41 16 51 5 8 4-1 20-15 27-18 34-23 19-13 15-10 16-11 19-13 17-12 13-8 2-1v-3l-33-11-49-15-37-12-23-7-78-24-22-7-11-3zm-222 151-17 5-36 12-20 7-128 43-17 6-10 4 2 4 39 26 20 14 18 12 23 16 36 24 17 12 15 10 23 16 15 10 13 9 6 3h2v-233zm29 2v232l5-1 22-15 23-16 25-17 12-8 22-15 17-12 24-16 16-11 19-13 13-9 24-16 7-5-1-2-34-12-41-14-36-12-41-14-40-14-28-9z" fill="#F5AE3C"/>
</svg>
